HIERARCHY
ROOT Hip
{
	OFFSET	0.0000	0.0000	0.0000
	CHANNELS 6 Xposition Yposition Zposition Xrotation Yrotation Zrotation
	JOINT LowerSpine
	{
		OFFSET	0.0000	8.3453	-5.1292
		CHANNELS 3 Xrotation Yrotation Zrotation
		JOINT MiddleSpine
		{
			OFFSET	10.8569	0.0000	0.0000
			CHANNELS 3 Xrotation Yrotation Zrotation
			JOINT Chest
			{
				OFFSET	15.2984	0.0000	0.0000
				CHANNELS 3 Xrotation Yrotation Zrotation
				JOINT Neck
				{
					OFFSET	25.6618	-0.5986	0.0000
					CHANNELS 3 Xrotation Yrotation Zrotation
					JOINT Head
					{
						OFFSET	8.8829	0.0000	0.0000
						CHANNELS 3 Xrotation Yrotation Zrotation
						End Site
						{
							OFFSET	19.7399	0.0000	0.0000
						}
					}
				}
				JOINT RClavicle
				{
					OFFSET	23.6878	0.0000	3.1584
					CHANNELS 3 Xrotation Yrotation Zrotation
					JOINT RShoulder
					{
						OFFSET	-15.5945	-3.9480	0.9870
						CHANNELS 3 Xrotation Yrotation Zrotation
						JOINT RForearm
						{
							OFFSET	-31.3370	0.0000	0.1974
							CHANNELS 3 Xrotation Yrotation Zrotation
							JOINT RHand
							{
								OFFSET	-26.4021	0.0000	0.0000
								CHANNELS 3 Xrotation Yrotation Zrotation
								End Site
								{
									OFFSET	-15.7919	-0.9870	0.0000
								}
							}
						}
					}
				}
				JOINT LClavicle
				{
					OFFSET	23.6878	0.0000	-3.1584
					CHANNELS 3 Xrotation Yrotation Zrotation
					JOINT LShoulder
					{
						OFFSET	-15.5945	-3.9480	-0.9870
						CHANNELS 3 Xrotation Yrotation Zrotation
						JOINT LForearm
						{
							OFFSET	-31.3370	0.0000	-0.1974
							CHANNELS 3 Xrotation Yrotation Zrotation
							JOINT LHand
							{
								OFFSET	-26.4021	0.0000	0.0000
								CHANNELS 3 Xrotation Yrotation Zrotation
								End Site
								{
									OFFSET	-15.7919	-0.9870	0.0000
								}
							}
						}
					}
				}
			}
		}
	}
	JOINT RThigh
	{
		OFFSET	-8.8829	0.4481	0.0000
		CHANNELS 3 Xrotation Yrotation Zrotation
		JOINT RShin
		{
			OFFSET	43.1316	0.0000	-0.4935
			CHANNELS 3 Xrotation Yrotation Zrotation
			JOINT RFoot
			{
				OFFSET	0.0000	-44.7256	-0.4047
				CHANNELS 3 Xrotation Yrotation Zrotation
				JOINT RToe
				{
					OFFSET	0.0000	-3.9332	12.1953
					CHANNELS 3 Xrotation Yrotation Zrotation
					End Site
					{
						OFFSET	6.7725	0.0000	0.0000
					}
				}
			}
		}
	}
	JOINT LThigh
	{
		OFFSET	8.8829	0.4481	0.0000
		CHANNELS 3 Xrotation Yrotation Zrotation
		JOINT LShin
		{
			OFFSET	43.1316	0.0000	0.4935
			CHANNELS 3 Xrotation Yrotation Zrotation
			JOINT LFoot
			{
				OFFSET	0.0000	-44.7256	0.4047
				CHANNELS 3 Xrotation Yrotation Zrotation
				JOINT LToe
				{
					OFFSET	0.0000	-3.9332	-12.1953
					CHANNELS 3 Xrotation Yrotation Zrotation
					End Site
					{
						OFFSET	6.7725	0.0000	0.0000
					}
				}
			}
		}
	}
}
MOTION
Frames:	14
Frame Time: 0.0169491000
	0.0000	93.1363	0.0000	0.000000	0.000000	0.000000	-89.999990	-90.000000	0.000000	0.000000	0.000000	0.000000	0.000000	0.000000	0.000000	0.000000	0.000000	0.000000	0.000000	0.000000	0.000000	89.999990	0.000003	-89.999990	0.129889	-2.857029	4.156837	0.255388	4.965908	-5.884634	0.000000	0.000000	0.000000	-89.999990	-0.000003	-89.999990	-0.129889	2.857029	4.156894	-0.255388	-4.965908	-5.884634	0.000000	0.000000	0.000000	-89.999990	90.000000	0.000000	89.999990	-0.000003	89.999990	0.000000	0.000000	0.000000	180.000000	90.000000	0.000000	-89.999990	90.000000	0.000000	-90.000000	-0.000003	89.999990	0.000000	0.000000	0.000000	180.000000	-90.000000	0.000000
	6.0874	93.1477	17.7808	-1.631296	5.209148	0.825318	-89.999990	-90.000000	0.000000	0.068093	-0.431939	-0.007692	0.244958	-1.411189	-0.032337	0.000000	0.000000	0.000000	0.000000	0.000000	0.000000	90.000080	0.001801	-90.024150	-9.764336	1.175190	4.885715	0.481399	7.142185	-5.908475	0.000000	0.000000	0.000000	-90.001560	-0.030618	-90.411700	0.884006	-4.935053	8.338634	-0.378103	-6.149741	-5.896520	0.000000	0.000000	0.000000	124.455700	87.455490	152.468300	90.014180	4.268699	90.001830	-6.143225	-0.460161	-0.193830	177.092000	90.000000	0.000000	-94.079780	84.377960	9.479917	-89.992250	-1.256481	89.999160	0.647929	-0.409015	0.126785	183.835000	-90.000000	0.000000
	6.3288	92.9663	17.8227	-1.543391	5.375922	1.019598	-89.999990	-90.000000	0.000000	0.114824	-0.362662	-0.035490	0.398623	-1.184158	-0.117837	0.000000	0.000000	0.000000	0.000000	0.000000	0.000000	90.000400	0.008503	-90.114270	-8.250269	1.023667	5.014685	0.472707	7.058836	-5.907401	0.000000	0.000000	0.000000	-90.001900	-0.036578	-90.491800	3.246513	-4.985575	8.378414	-0.409681	-6.453563	-5.899986	0.000000	0.000000	0.000000	73.763630	87.026500	-157.416500	90.008070	4.955041	90.000980	-6.702976	-0.057675	-0.008039	177.233200	90.000000	0.000000	-87.877460	84.660220	2.176980	-89.983120	-2.275141	89.998340	1.086422	0.685548	-0.220720	183.599400	-90.000000	0.000000
	6.5433	92.7911	17.8529	-1.393118	5.460538	1.201833	-89.999990	-90.000000	0.000000	0.150317	-0.308998	-0.054443	0.519797	-0.999287	-0.173616	0.000000	0.000000	0.000000	0.000000	0.000000	0.000000	90.001010	0.020427	-90.274640	-6.596201	1.067373	5.156806	0.491998	7.243787	-5.909802	0.000000	0.000000	0.000000	-90.002310	-0.043809	-90.589100	5.144992	-4.825114	8.698315	-0.459598	-6.933066	-5.905804	0.000000	0.000000	0.000000	51.430050	85.398020	-135.665700	90.005240	5.273364	90.000630	-7.302587	-0.017582	0.014344	177.799600	90.000000	0.000000	-82.488570	84.893890	-4.387688	-89.973050	-3.398735	89.997620	1.719725	1.846001	-0.618854	183.134800	-90.000000	0.000000
	6.6531	92.6865	17.8901	-1.324581	5.385522	1.342727	-89.999990	-90.000000	0.000000	0.185375	-0.250073	-0.062151	0.599076	-0.863242	-0.190515	0.000000	0.000000	0.000000	0.000000	0.000000	0.000000	90.002000	0.038445	-90.516980	-5.548329	1.334292	5.405060	0.492316	7.246834	-5.909842	0.000000	0.000000	0.000000	-90.002830	-0.052646	-90.708020	6.055164	-4.585430	9.001944	-0.493526	-7.258436	-5.909995	0.000000	0.000000	0.000000	46.772920	84.477550	-131.205800	90.006390	5.144187	90.000770	-7.807280	-0.400455	-0.163722	178.518900	90.000000	0.000000	-79.678060	85.060790	-7.879466	-89.965840	-4.205324	89.997220	2.282236	2.630944	-0.916669	182.754800	-90.000000	0.000000
	6.6947	92.6504	17.9136	-1.318623	5.219969	1.464467	-89.999990	-90.000000	0.000000	0.196754	-0.220627	-0.055406	0.645959	-0.751745	-0.178157	0.000000	0.000000	0.000000	0.000000	0.000000	0.000000	90.003220	0.059094	-90.794830	-5.189073	1.699230	5.758515	0.462437	6.960311	-5.906148	0.000000	0.000000	0.000000	-90.003430	-0.062456	-90.840000	6.245108	-4.401985	9.207939	-0.496433	-7.286292	-5.910363	0.000000	0.000000	0.000000	48.574120	84.428190	-132.932600	90.008740	4.879028	90.001080	-8.054426	-0.957230	-0.427035	178.960100	90.000000	0.000000	-78.916370	85.204740	-8.790534	-89.963490	-4.465086	89.997120	2.479411	2.962028	-1.047144	182.674100	-90.000000	0.000000
	6.7265	92.6367	17.8999	-1.269246	5.105227	1.583874	-89.999990	-90.000000	0.000000	0.202071	-0.188648	-0.043796	0.665008	-0.645662	-0.148675	0.000000	0.000000	0.000000	0.000000	0.000000	0.000000	90.004350	0.076723	-91.032040	-5.068058	1.904840	6.106409	0.458371	6.921298	-5.905657	0.000000	0.000000	0.000000	-90.004010	-0.071534	-90.962140	6.223763	-4.242632	9.369146	-0.496575	-7.287645	-5.910380	0.000000	0.000000	0.000000	52.408790	84.589280	-136.776600	90.009830	4.757227	90.001220	-8.085290	-1.381933	-0.622766	179.079800	90.000000	0.000000	-78.910880	85.340540	-8.852990	-89.963490	-4.465780	89.997120	2.427651	3.011606	-1.061169	182.738800	-90.000000	0.000000
	6.7425	92.6258	17.8964	-1.233969	5.020169	1.681105	-89.999990	-90.000000	0.000000	0.200827	-0.154884	-0.033742	0.662435	-0.528980	-0.116709	0.000000	0.000000	0.000000	0.000000	0.000000	0.000000	90.005010	0.086661	-91.165830	-4.968795	2.031847	6.400363	0.478152	7.111051	-5.908073	0.000000	0.000000	0.000000	-90.004440	-0.078153	-91.051270	6.226473	-3.993112	9.384509	-0.523389	-7.544422	-5.913841	0.000000	0.000000	0.000000	55.370800	84.619900	-139.745800	90.010820	4.646698	90.001350	-8.015480	-1.359977	-0.608983	179.086900	90.000000	0.000000	-79.119150	85.461430	-8.814525	-89.961360	-4.703280	89.997020	2.448066	3.216960	-1.126127	182.806000	-90.000000	0.000000
	6.7399	92.6275	17.8996	-1.232713	4.932431	1.754499	-89.999990	-90.000000	0.000000	0.195668	-0.117224	-0.028782	0.648361	-0.394521	-0.098061	0.000000	0.000000	0.000000	0.000000	0.000000	0.000000	90.004810	0.083797	-91.127320	-4.895968	2.230796	6.634023	0.511529	7.430883	-5.912297	0.000000	0.000000	0.000000	-90.004650	-0.081336	-91.094080	6.282955	-3.758903	9.237799	-0.550566	-7.804357	-5.917470	0.000000	0.000000	0.000000	56.337450	84.516330	-140.654100	90.012420	4.466459	90.001570	-7.915551	-0.980665	-0.434908	179.067400	90.000000	0.000000	-79.399610	85.580510	-8.761866	-89.957220	-5.166276	89.996880	2.493700	3.702975	-1.295469	182.945400	-90.000000	0.000000
	6.7358	92.6386	17.8614	-1.173001	4.900232	1.820223	-89.999990	-90.000000	0.000000	0.190939	-0.074580	-0.031049	0.635286	-0.246616	-0.105590	0.000000	0.000000	0.000000	0.000000	0.000000	0.000000	90.004100	0.072948	-90.981250	-4.815725	2.318712	6.856559	0.657314	8.822121	-5.932907	0.000000	0.000000	0.000000	-90.004670	-0.081506	-91.096390	6.381304	-3.640968	9.062842	-0.560790	-7.902066	-5.918867	0.000000	0.000000	0.000000	55.838670	84.355760	-140.210200	90.013240	4.373313	90.001690	-7.910352	-0.756837	-0.336331	179.152200	90.000000	0.000000	-79.608910	85.688160	-8.779442	-89.954630	-5.455635	89.996800	2.333001	4.061612	-1.422170	183.192100	-90.000000	0.000000
	6.7398	92.6390	17.8042	-1.076200	4.888276	1.892321	-89.999990	-90.000000	0.000000	0.189319	-0.031612	-0.041299	0.632378	-0.098516	-0.143544	0.000000	0.000000	0.000000	0.000000	0.000000	0.000000	90.002880	0.053736	-90.722720	-4.963253	2.298254	7.101465	0.961236	11.687110	-5.987029	0.000000	0.000000	0.000000	-90.004430	-0.077945	-91.048490	6.499660	-3.491731	8.893851	-0.581709	-8.101823	-5.921780	0.000000	0.000000	0.000000	54.945580	84.189000	-139.501500	90.012380	4.471124	90.001560	-8.120904	-0.812183	-0.367497	179.370700	90.000000	0.000000	-79.807400	85.791510	-8.805951	-89.953280	-5.606273	89.996770	2.189012	4.224234	-1.482928	183.341800	-90.000000	0.000000
	6.7650	92.6263	17.7562	-1.011880	4.825520	1.983305	-89.999990	-90.000000	0.000000	0.190803	0.004513	-0.056078	0.638556	0.032836	-0.204233	0.000000	0.000000	0.000000	0.000000	0.000000	0.000000	90.001510	0.029896	-90.401970	-5.342560	2.447829	7.377120	1.394137	15.664410	-6.089440	0.000000	0.000000	0.000000	-90.004110	-0.073040	-90.982480	6.640228	-3.209320	8.748754	-0.631917	-8.580464	-5.929063	0.000000	0.000000	0.000000	53.322550	83.896710	-138.143400	90.009670	4.776199	90.001190	-8.418571	-0.777462	-0.353080	179.573000	90.000000	0.000000	-80.140300	85.920560	-8.774103	-89.949900	-5.983264	89.996700	2.397546	4.331028	-1.538105	183.211300	-90.000000	0.000000
	6.7944	92.6152	17.7292	-1.000282	4.734624	2.046898	-89.999990	-90.000000	0.000000	0.191710	0.027073	-0.068560	0.639369	0.130912	-0.270245	0.000000	0.000000	0.000000	0.000000	0.000000	0.000000	90.000270	0.005833	-90.078290	-5.037848	2.735344	7.825808	2.091144	21.743210	-6.313272	0.000000	0.000000	0.000000	-90.003450	-0.062725	-90.843670	6.773870	-2.675826	8.628115	-0.749657	-9.698034	-5.947765	0.000000	0.000000	0.000000	48.555370	83.195610	-133.650200	90.006480	5.134873	90.000780	-8.486632	-0.189915	-0.052619	179.523300	90.000000	0.000000	-80.791850	86.008100	-8.535048	-89.943100	-6.739499	89.996640	2.844628	4.354371	-1.586667	182.956600	-90.000000	0.000000
	6.7964	92.6015	17.7435	-1.063581	4.747983	1.999676	-89.999990	-90.000000	0.000000	0.183818	0.066936	-0.108897	0.611882	0.182388	-0.321501	0.000000	0.000000	0.000000	0.000000	0.000000	0.000000	89.999320	-0.014193	-89.809010	-4.283386	2.680223	9.024371	3.305946	31.175500	-6.856398	0.000000	0.000000	0.000000	-90.002270	-0.043076	-90.579300	6.853268	-1.832252	8.460435	-0.975316	-11.818520	-5.989896	0.000000	0.000000	0.000000	40.069490	81.740160	-125.561700	90.000140	5.847019	90.000010	-8.461805	1.325209	0.735225	179.200600	90.000000	0.000000	-81.847080	85.960330	-7.934063	-89.934010	-7.750034	89.996690	3.288100	4.422607	-1.660082	182.876700	-90.000000	0.000000
